<mxfile host="app.diagrams.net" modified="2022-05-25T15:57:58.365Z" agent="5.0 (Windows NT 10.0; Win64; x64) AppleWebKit/537.36 (KHTML, like Gecko) Chrome/100.0.4896.127 Safari/537.36 OPR/86.0.4363.64" etag="91-MjrOSiVSTZBaFzb2h" version="18.1.2" type="github">
  <diagram id="pM6Mw5r_kHdCX4o6W51L" name="Page-1">
    <mxGraphModel dx="4462" dy="2648" grid="1" gridSize="10" guides="1" tooltips="1" connect="1" arrows="1" fold="1" page="1" pageScale="1" pageWidth="850" pageHeight="1100" math="0" shadow="0">
      <root>
        <mxCell id="0" />
        <mxCell id="1" parent="0" />
        <mxCell id="16dyO4OcK8zkG5f7qzQN-3" value="" style="edgeStyle=orthogonalEdgeStyle;rounded=0;orthogonalLoop=1;jettySize=auto;html=1;fontSize=17;fontColor=#FCFCFC;" edge="1" parent="1" source="16dyO4OcK8zkG5f7qzQN-1" target="16dyO4OcK8zkG5f7qzQN-23">
          <mxGeometry relative="1" as="geometry">
            <mxPoint x="790" y="175" as="targetPoint" />
          </mxGeometry>
        </mxCell>
        <mxCell id="16dyO4OcK8zkG5f7qzQN-5" value="" style="edgeStyle=orthogonalEdgeStyle;rounded=0;orthogonalLoop=1;jettySize=auto;html=1;fontSize=24;fontColor=#FCFCFC;" edge="1" parent="1" source="16dyO4OcK8zkG5f7qzQN-1" target="16dyO4OcK8zkG5f7qzQN-26">
          <mxGeometry relative="1" as="geometry">
            <mxPoint x="605" y="50" as="targetPoint" />
          </mxGeometry>
        </mxCell>
        <mxCell id="16dyO4OcK8zkG5f7qzQN-9" value="" style="edgeStyle=orthogonalEdgeStyle;rounded=0;orthogonalLoop=1;jettySize=auto;html=1;fontSize=24;fontColor=#FCFCFC;" edge="1" parent="1" source="16dyO4OcK8zkG5f7qzQN-1" target="16dyO4OcK8zkG5f7qzQN-22">
          <mxGeometry relative="1" as="geometry">
            <mxPoint x="430" y="175" as="targetPoint" />
          </mxGeometry>
        </mxCell>
        <mxCell id="16dyO4OcK8zkG5f7qzQN-11" value="" style="edgeStyle=orthogonalEdgeStyle;rounded=0;orthogonalLoop=1;jettySize=auto;html=1;fontSize=24;fontColor=#FCFCFC;" edge="1" parent="1" source="16dyO4OcK8zkG5f7qzQN-1" target="16dyO4OcK8zkG5f7qzQN-24">
          <mxGeometry relative="1" as="geometry">
            <mxPoint x="605" y="300" as="targetPoint" />
          </mxGeometry>
        </mxCell>
        <mxCell id="16dyO4OcK8zkG5f7qzQN-1" value="&lt;b&gt;&lt;font style=&quot;font-size: 24px;&quot;&gt;RECIPEGOD&lt;/font&gt;&lt;/b&gt;" style="rounded=1;whiteSpace=wrap;html=1;arcSize=20;fillColor=#3333FF;strokeColor=#6c8ebf;fontColor=#FCFCFC;" vertex="1" parent="1">
          <mxGeometry x="510" y="130" width="190" height="90" as="geometry" />
        </mxCell>
        <mxCell id="16dyO4OcK8zkG5f7qzQN-21" value="TAGS" style="ellipse;shape=doubleEllipse;margin=3;whiteSpace=wrap;html=1;align=center;shadow=0;labelBorderColor=default;fontSize=24;fontColor=#FCFCFC;fillColor=#4545BF;gradientColor=none;" vertex="1" parent="1">
          <mxGeometry x="550" y="-180" width="110" height="50" as="geometry" />
        </mxCell>
        <mxCell id="16dyO4OcK8zkG5f7qzQN-82" style="edgeStyle=orthogonalEdgeStyle;rounded=0;orthogonalLoop=1;jettySize=auto;html=1;fontSize=24;fontColor=#FCFCFC;" edge="1" parent="1" source="16dyO4OcK8zkG5f7qzQN-22" target="16dyO4OcK8zkG5f7qzQN-81">
          <mxGeometry relative="1" as="geometry" />
        </mxCell>
        <mxCell id="16dyO4OcK8zkG5f7qzQN-83" style="edgeStyle=orthogonalEdgeStyle;rounded=0;orthogonalLoop=1;jettySize=auto;html=1;fontSize=24;fontColor=#FCFCFC;" edge="1" parent="1" source="16dyO4OcK8zkG5f7qzQN-22" target="16dyO4OcK8zkG5f7qzQN-93">
          <mxGeometry relative="1" as="geometry">
            <mxPoint x="-370" y="260" as="targetPoint" />
          </mxGeometry>
        </mxCell>
        <mxCell id="16dyO4OcK8zkG5f7qzQN-88" style="edgeStyle=orthogonalEdgeStyle;rounded=0;orthogonalLoop=1;jettySize=auto;html=1;entryX=1;entryY=0.5;entryDx=0;entryDy=0;fontSize=24;fontColor=#FCFCFC;" edge="1" parent="1" source="16dyO4OcK8zkG5f7qzQN-22" target="16dyO4OcK8zkG5f7qzQN-87">
          <mxGeometry relative="1" as="geometry" />
        </mxCell>
        <mxCell id="16dyO4OcK8zkG5f7qzQN-22" value="&lt;b&gt;SEARCHES&lt;/b&gt;" style="whiteSpace=wrap;html=1;align=center;shadow=0;labelBorderColor=default;fontSize=24;fontColor=#FCFCFC;fillColor=#3333FF;gradientColor=none;" vertex="1" parent="1">
          <mxGeometry x="-210" y="127.5" width="290" height="95" as="geometry" />
        </mxCell>
        <mxCell id="16dyO4OcK8zkG5f7qzQN-58" style="edgeStyle=orthogonalEdgeStyle;rounded=0;orthogonalLoop=1;jettySize=auto;html=1;fontSize=24;fontColor=#FCFCFC;" edge="1" parent="1" source="16dyO4OcK8zkG5f7qzQN-23" target="16dyO4OcK8zkG5f7qzQN-59">
          <mxGeometry relative="1" as="geometry">
            <mxPoint x="1483" y="340" as="targetPoint" />
          </mxGeometry>
        </mxCell>
        <mxCell id="16dyO4OcK8zkG5f7qzQN-68" style="edgeStyle=orthogonalEdgeStyle;rounded=0;orthogonalLoop=1;jettySize=auto;html=1;fontSize=24;fontColor=#FCFCFC;" edge="1" parent="1" source="16dyO4OcK8zkG5f7qzQN-23" target="16dyO4OcK8zkG5f7qzQN-67">
          <mxGeometry relative="1" as="geometry" />
        </mxCell>
        <mxCell id="16dyO4OcK8zkG5f7qzQN-75" style="edgeStyle=orthogonalEdgeStyle;rounded=0;orthogonalLoop=1;jettySize=auto;html=1;fontSize=24;fontColor=#FCFCFC;" edge="1" parent="1" source="16dyO4OcK8zkG5f7qzQN-23" target="16dyO4OcK8zkG5f7qzQN-76">
          <mxGeometry relative="1" as="geometry">
            <mxPoint x="1820" y="310" as="targetPoint" />
          </mxGeometry>
        </mxCell>
        <mxCell id="16dyO4OcK8zkG5f7qzQN-23" value="&lt;b style=&quot;font-size: 12px;&quot;&gt;&lt;font style=&quot;font-size: 24px;&quot;&gt;USERS&lt;/font&gt;&lt;/b&gt;" style="whiteSpace=wrap;html=1;align=center;shadow=0;labelBorderColor=default;fontSize=24;fontColor=#FCFCFC;fillColor=#3333FF;gradientColor=none;" vertex="1" parent="1">
          <mxGeometry x="1380" y="130" width="178" height="65" as="geometry" />
        </mxCell>
        <mxCell id="16dyO4OcK8zkG5f7qzQN-24" value="&lt;b&gt;COMMENTS&lt;/b&gt;" style="whiteSpace=wrap;html=1;align=center;shadow=0;labelBorderColor=default;fontSize=24;fontColor=#FCFCFC;fillColor=#3333FF;gradientColor=none;" vertex="1" parent="1">
          <mxGeometry x="515" y="450" width="180" height="60" as="geometry" />
        </mxCell>
        <mxCell id="16dyO4OcK8zkG5f7qzQN-27" style="edgeStyle=orthogonalEdgeStyle;rounded=0;orthogonalLoop=1;jettySize=auto;html=1;entryX=0.5;entryY=1;entryDx=0;entryDy=0;fontSize=24;fontColor=#FCFCFC;" edge="1" parent="1" source="16dyO4OcK8zkG5f7qzQN-26" target="16dyO4OcK8zkG5f7qzQN-21">
          <mxGeometry relative="1" as="geometry" />
        </mxCell>
        <mxCell id="16dyO4OcK8zkG5f7qzQN-35" style="edgeStyle=orthogonalEdgeStyle;rounded=0;orthogonalLoop=1;jettySize=auto;html=1;fontSize=24;fontColor=#FCFCFC;" edge="1" parent="1" source="16dyO4OcK8zkG5f7qzQN-26" target="16dyO4OcK8zkG5f7qzQN-34">
          <mxGeometry relative="1" as="geometry" />
        </mxCell>
        <mxCell id="16dyO4OcK8zkG5f7qzQN-37" style="edgeStyle=orthogonalEdgeStyle;rounded=0;orthogonalLoop=1;jettySize=auto;html=1;fontSize=24;fontColor=#FCFCFC;" edge="1" parent="1" source="16dyO4OcK8zkG5f7qzQN-26" target="16dyO4OcK8zkG5f7qzQN-36">
          <mxGeometry relative="1" as="geometry" />
        </mxCell>
        <mxCell id="16dyO4OcK8zkG5f7qzQN-43" style="edgeStyle=orthogonalEdgeStyle;rounded=0;orthogonalLoop=1;jettySize=auto;html=1;fontSize=24;fontColor=#FCFCFC;" edge="1" parent="1" source="16dyO4OcK8zkG5f7qzQN-26" target="16dyO4OcK8zkG5f7qzQN-41">
          <mxGeometry relative="1" as="geometry" />
        </mxCell>
        <mxCell id="16dyO4OcK8zkG5f7qzQN-45" style="edgeStyle=orthogonalEdgeStyle;rounded=0;orthogonalLoop=1;jettySize=auto;html=1;fontSize=24;fontColor=#FCFCFC;" edge="1" parent="1" source="16dyO4OcK8zkG5f7qzQN-26" target="16dyO4OcK8zkG5f7qzQN-38">
          <mxGeometry relative="1" as="geometry" />
        </mxCell>
        <mxCell id="16dyO4OcK8zkG5f7qzQN-26" value="&lt;b&gt;POSTS&lt;/b&gt;" style="whiteSpace=wrap;html=1;align=center;shadow=0;labelBorderColor=default;fontSize=24;fontColor=#FCFCFC;fillColor=#3333FF;gradientColor=none;" vertex="1" parent="1">
          <mxGeometry x="500" y="-30" width="200" height="80" as="geometry" />
        </mxCell>
        <mxCell id="16dyO4OcK8zkG5f7qzQN-34" value="TITLE" style="ellipse;whiteSpace=wrap;html=1;align=center;shadow=0;labelBorderColor=default;fontSize=24;fontColor=#FCFCFC;fillColor=#4545BF;gradientColor=none;" vertex="1" parent="1">
          <mxGeometry x="340" y="-190" width="140" height="60" as="geometry" />
        </mxCell>
        <mxCell id="16dyO4OcK8zkG5f7qzQN-46" style="edgeStyle=orthogonalEdgeStyle;rounded=0;orthogonalLoop=1;jettySize=auto;html=1;fontSize=24;fontColor=#FCFCFC;" edge="1" parent="1" source="16dyO4OcK8zkG5f7qzQN-36" target="16dyO4OcK8zkG5f7qzQN-47">
          <mxGeometry relative="1" as="geometry">
            <mxPoint x="840" y="-270.0000000000002" as="targetPoint" />
          </mxGeometry>
        </mxCell>
        <mxCell id="16dyO4OcK8zkG5f7qzQN-50" style="edgeStyle=orthogonalEdgeStyle;rounded=0;orthogonalLoop=1;jettySize=auto;html=1;fontSize=24;fontColor=#FCFCFC;" edge="1" parent="1" source="16dyO4OcK8zkG5f7qzQN-36" target="16dyO4OcK8zkG5f7qzQN-49">
          <mxGeometry relative="1" as="geometry" />
        </mxCell>
        <mxCell id="16dyO4OcK8zkG5f7qzQN-51" style="edgeStyle=orthogonalEdgeStyle;rounded=0;orthogonalLoop=1;jettySize=auto;html=1;fontSize=24;fontColor=#FCFCFC;" edge="1" parent="1" source="16dyO4OcK8zkG5f7qzQN-36" target="16dyO4OcK8zkG5f7qzQN-48">
          <mxGeometry relative="1" as="geometry" />
        </mxCell>
        <mxCell id="16dyO4OcK8zkG5f7qzQN-36" value="CONTENT" style="ellipse;whiteSpace=wrap;html=1;align=center;shadow=0;labelBorderColor=default;fontSize=24;fontColor=#FCFCFC;fillColor=#4545BF;gradientColor=none;" vertex="1" parent="1">
          <mxGeometry x="770" y="-190" width="140" height="60" as="geometry" />
        </mxCell>
        <mxCell id="16dyO4OcK8zkG5f7qzQN-38" value="HIREABLE" style="ellipse;shape=doubleEllipse;margin=3;whiteSpace=wrap;html=1;align=center;shadow=0;labelBorderColor=default;fontSize=24;fontColor=#FCFCFC;fillColor=#4545BF;gradientColor=none;" vertex="1" parent="1">
          <mxGeometry x="910" y="-70" width="160" height="60" as="geometry" />
        </mxCell>
        <mxCell id="16dyO4OcK8zkG5f7qzQN-41" value="ID_POST" style="ellipse;whiteSpace=wrap;html=1;align=center;fontStyle=4;shadow=0;labelBorderColor=default;fontSize=24;fontColor=#FCFCFC;fillColor=#4545BF;gradientColor=none;" vertex="1" parent="1">
          <mxGeometry x="130" y="-80" width="160" height="70" as="geometry" />
        </mxCell>
        <mxCell id="16dyO4OcK8zkG5f7qzQN-47" value="IMAGES" style="ellipse;whiteSpace=wrap;html=1;align=center;shadow=0;labelBorderColor=default;fontSize=24;fontColor=#FCFCFC;fillColor=#444488;gradientColor=none;" vertex="1" parent="1">
          <mxGeometry x="770" y="-355" width="140" height="60" as="geometry" />
        </mxCell>
        <mxCell id="16dyO4OcK8zkG5f7qzQN-48" value="STEPS" style="ellipse;whiteSpace=wrap;html=1;align=center;shadow=0;labelBorderColor=default;fontSize=24;fontColor=#FCFCFC;fillColor=#444488;gradientColor=none;" vertex="1" parent="1">
          <mxGeometry x="940" y="-350" width="140" height="50" as="geometry" />
        </mxCell>
        <mxCell id="16dyO4OcK8zkG5f7qzQN-49" value="INGREDIENTS" style="ellipse;whiteSpace=wrap;html=1;align=center;shadow=0;labelBorderColor=default;fontSize=24;fontColor=#FCFCFC;fillColor=#444488;gradientColor=none;" vertex="1" parent="1">
          <mxGeometry x="570" y="-360" width="190" height="70" as="geometry" />
        </mxCell>
        <mxCell id="16dyO4OcK8zkG5f7qzQN-52" value="&lt;b&gt;FOLLOWERS&lt;/b&gt;" style="ellipse;whiteSpace=wrap;html=1;fontSize=24;fillColor=#444488;fontColor=#FCFCFC;shadow=0;labelBorderColor=default;gradientColor=none;" vertex="1" parent="1">
          <mxGeometry x="1850" y="-186" width="205" height="95" as="geometry" />
        </mxCell>
        <mxCell id="16dyO4OcK8zkG5f7qzQN-54" value="&lt;b&gt;FOLLOWING&lt;/b&gt;" style="ellipse;whiteSpace=wrap;html=1;fontSize=24;fillColor=#444488;fontColor=#FCFCFC;shadow=0;labelBorderColor=default;gradientColor=none;" vertex="1" parent="1">
          <mxGeometry x="1558" y="-186" width="205" height="95" as="geometry" />
        </mxCell>
        <mxCell id="16dyO4OcK8zkG5f7qzQN-55" value="&lt;b&gt;POSTS&lt;/b&gt;" style="ellipse;whiteSpace=wrap;html=1;fontSize=24;fillColor=#444488;fontColor=#FCFCFC;shadow=0;labelBorderColor=default;gradientColor=none;" vertex="1" parent="1">
          <mxGeometry x="2090" y="-186" width="220" height="90" as="geometry" />
        </mxCell>
        <mxCell id="16dyO4OcK8zkG5f7qzQN-61" value="" style="edgeStyle=orthogonalEdgeStyle;rounded=0;orthogonalLoop=1;jettySize=auto;html=1;fontSize=24;fontColor=#FCFCFC;" edge="1" parent="1" source="16dyO4OcK8zkG5f7qzQN-59" target="16dyO4OcK8zkG5f7qzQN-60">
          <mxGeometry relative="1" as="geometry" />
        </mxCell>
        <mxCell id="16dyO4OcK8zkG5f7qzQN-62" style="edgeStyle=orthogonalEdgeStyle;rounded=0;orthogonalLoop=1;jettySize=auto;html=1;fontSize=24;fontColor=#FCFCFC;" edge="1" parent="1" source="16dyO4OcK8zkG5f7qzQN-59" target="16dyO4OcK8zkG5f7qzQN-63">
          <mxGeometry relative="1" as="geometry">
            <mxPoint x="1578" y="510" as="targetPoint" />
          </mxGeometry>
        </mxCell>
        <mxCell id="16dyO4OcK8zkG5f7qzQN-59" value="&lt;b&gt;LOGIN&lt;/b&gt;" style="ellipse;whiteSpace=wrap;html=1;fontSize=24;fillColor=#4545BF;fontColor=#FCFCFC;shadow=0;labelBorderColor=default;gradientColor=none;" vertex="1" parent="1">
          <mxGeometry x="1380.5" y="340" width="205" height="95" as="geometry" />
        </mxCell>
        <mxCell id="16dyO4OcK8zkG5f7qzQN-60" value="&lt;b&gt;EMAIL&lt;/b&gt;" style="ellipse;whiteSpace=wrap;html=1;fontSize=24;fillColor=#444488;fontColor=#FCFCFC;shadow=0;labelBorderColor=default;gradientColor=none;" vertex="1" parent="1">
          <mxGeometry x="1248" y="510" width="205" height="95" as="geometry" />
        </mxCell>
        <mxCell id="16dyO4OcK8zkG5f7qzQN-63" value="&lt;b&gt;PASSWORD&lt;/b&gt;" style="ellipse;whiteSpace=wrap;html=1;fontSize=24;fillColor=#444488;fontColor=#FCFCFC;shadow=0;labelBorderColor=default;gradientColor=none;" vertex="1" parent="1">
          <mxGeometry x="1488" y="510" width="205" height="95" as="geometry" />
        </mxCell>
        <mxCell id="16dyO4OcK8zkG5f7qzQN-70" style="edgeStyle=orthogonalEdgeStyle;rounded=0;orthogonalLoop=1;jettySize=auto;html=1;entryX=0.5;entryY=1;entryDx=0;entryDy=0;fontSize=24;fontColor=#FCFCFC;" edge="1" parent="1" source="16dyO4OcK8zkG5f7qzQN-67" target="16dyO4OcK8zkG5f7qzQN-52">
          <mxGeometry relative="1" as="geometry" />
        </mxCell>
        <mxCell id="16dyO4OcK8zkG5f7qzQN-72" style="edgeStyle=orthogonalEdgeStyle;rounded=0;orthogonalLoop=1;jettySize=auto;html=1;fontSize=24;fontColor=#FCFCFC;" edge="1" parent="1" source="16dyO4OcK8zkG5f7qzQN-67" target="16dyO4OcK8zkG5f7qzQN-54">
          <mxGeometry relative="1" as="geometry" />
        </mxCell>
        <mxCell id="16dyO4OcK8zkG5f7qzQN-74" style="edgeStyle=orthogonalEdgeStyle;rounded=0;orthogonalLoop=1;jettySize=auto;html=1;entryX=0.5;entryY=1;entryDx=0;entryDy=0;fontSize=24;fontColor=#FCFCFC;" edge="1" parent="1" source="16dyO4OcK8zkG5f7qzQN-67" target="16dyO4OcK8zkG5f7qzQN-55">
          <mxGeometry relative="1" as="geometry" />
        </mxCell>
        <mxCell id="16dyO4OcK8zkG5f7qzQN-78" style="edgeStyle=orthogonalEdgeStyle;rounded=0;orthogonalLoop=1;jettySize=auto;html=1;fontSize=24;fontColor=#FCFCFC;" edge="1" parent="1" source="16dyO4OcK8zkG5f7qzQN-67" target="16dyO4OcK8zkG5f7qzQN-79">
          <mxGeometry relative="1" as="geometry">
            <mxPoint x="1410" y="-110" as="targetPoint" />
          </mxGeometry>
        </mxCell>
        <mxCell id="16dyO4OcK8zkG5f7qzQN-102" style="edgeStyle=orthogonalEdgeStyle;rounded=0;orthogonalLoop=1;jettySize=auto;html=1;fontSize=24;fontColor=#FCFCFC;" edge="1" parent="1" source="16dyO4OcK8zkG5f7qzQN-67" target="16dyO4OcK8zkG5f7qzQN-101">
          <mxGeometry relative="1" as="geometry" />
        </mxCell>
        <mxCell id="16dyO4OcK8zkG5f7qzQN-67" value="&lt;b&gt;PROFILE&lt;/b&gt;" style="ellipse;whiteSpace=wrap;html=1;fontSize=24;fillColor=#4545BF;fontColor=#FCFCFC;shadow=0;labelBorderColor=default;gradientColor=none;" vertex="1" parent="1">
          <mxGeometry x="1712" y="60" width="205" height="95" as="geometry" />
        </mxCell>
        <mxCell id="16dyO4OcK8zkG5f7qzQN-76" value="ID_USUARIO" style="ellipse;whiteSpace=wrap;html=1;align=center;fontStyle=4;shadow=0;labelBorderColor=default;fontSize=24;fontColor=#FCFCFC;fillColor=#4545BF;gradientColor=none;" vertex="1" parent="1">
          <mxGeometry x="1890" y="280" width="210" height="90" as="geometry" />
        </mxCell>
        <mxCell id="16dyO4OcK8zkG5f7qzQN-79" value="AVATAR" style="ellipse;whiteSpace=wrap;html=1;align=center;shadow=0;labelBorderColor=default;fontSize=24;fontColor=#FCFCFC;fillColor=#444488;gradientColor=none;" vertex="1" parent="1">
          <mxGeometry x="1712" y="-295" width="210" height="75" as="geometry" />
        </mxCell>
        <mxCell id="16dyO4OcK8zkG5f7qzQN-80" style="edgeStyle=orthogonalEdgeStyle;rounded=0;orthogonalLoop=1;jettySize=auto;html=1;exitX=0.75;exitY=0;exitDx=0;exitDy=0;entryX=0.68;entryY=0.375;entryDx=0;entryDy=0;entryPerimeter=0;fontSize=24;fontColor=#FCFCFC;" edge="1" parent="1" source="16dyO4OcK8zkG5f7qzQN-23" target="16dyO4OcK8zkG5f7qzQN-23">
          <mxGeometry relative="1" as="geometry" />
        </mxCell>
        <mxCell id="16dyO4OcK8zkG5f7qzQN-81" value="ID_SEARCH" style="ellipse;whiteSpace=wrap;html=1;align=center;fontStyle=4;shadow=0;labelBorderColor=default;fontSize=24;fontColor=#FCFCFC;fillColor=#4545BF;gradientColor=none;" vertex="1" parent="1">
          <mxGeometry y="280" width="210" height="70" as="geometry" />
        </mxCell>
        <mxCell id="16dyO4OcK8zkG5f7qzQN-108" style="edgeStyle=orthogonalEdgeStyle;rounded=0;orthogonalLoop=1;jettySize=auto;html=1;fontSize=24;fontColor=#FCFCFC;" edge="1" parent="1" source="16dyO4OcK8zkG5f7qzQN-87" target="16dyO4OcK8zkG5f7qzQN-96">
          <mxGeometry relative="1" as="geometry" />
        </mxCell>
        <mxCell id="16dyO4OcK8zkG5f7qzQN-109" style="edgeStyle=orthogonalEdgeStyle;rounded=0;orthogonalLoop=1;jettySize=auto;html=1;entryX=0.5;entryY=1;entryDx=0;entryDy=0;fontSize=24;fontColor=#FCFCFC;" edge="1" parent="1" source="16dyO4OcK8zkG5f7qzQN-87" target="16dyO4OcK8zkG5f7qzQN-95">
          <mxGeometry relative="1" as="geometry" />
        </mxCell>
        <mxCell id="16dyO4OcK8zkG5f7qzQN-110" style="edgeStyle=orthogonalEdgeStyle;rounded=0;orthogonalLoop=1;jettySize=auto;html=1;fontSize=24;fontColor=#FCFCFC;" edge="1" parent="1" source="16dyO4OcK8zkG5f7qzQN-87" target="16dyO4OcK8zkG5f7qzQN-111">
          <mxGeometry relative="1" as="geometry">
            <mxPoint x="-180" y="-200" as="targetPoint" />
          </mxGeometry>
        </mxCell>
        <mxCell id="16dyO4OcK8zkG5f7qzQN-112" style="edgeStyle=orthogonalEdgeStyle;rounded=0;orthogonalLoop=1;jettySize=auto;html=1;fontSize=24;fontColor=#FCFCFC;" edge="1" parent="1" source="16dyO4OcK8zkG5f7qzQN-87">
          <mxGeometry relative="1" as="geometry">
            <mxPoint x="-10" y="-220" as="targetPoint" />
          </mxGeometry>
        </mxCell>
        <mxCell id="16dyO4OcK8zkG5f7qzQN-87" value="FILTER" style="ellipse;whiteSpace=wrap;html=1;align=center;shadow=0;labelBorderColor=default;fontSize=24;fontColor=#FCFCFC;fillColor=#4545BF;gradientColor=none;" vertex="1" parent="1">
          <mxGeometry x="-300" y="-20" width="140" height="60" as="geometry" />
        </mxCell>
        <mxCell id="16dyO4OcK8zkG5f7qzQN-92" value="Text" style="text;html=1;align=center;verticalAlign=middle;resizable=0;points=[];autosize=1;strokeColor=none;fillColor=none;fontSize=24;fontColor=#FCFCFC;" vertex="1" parent="1">
          <mxGeometry x="-330" y="360" width="40" height="20" as="geometry" />
        </mxCell>
        <mxCell id="16dyO4OcK8zkG5f7qzQN-99" style="edgeStyle=orthogonalEdgeStyle;rounded=0;orthogonalLoop=1;jettySize=auto;html=1;fontSize=24;fontColor=#FCFCFC;entryX=0.5;entryY=0;entryDx=0;entryDy=0;" edge="1" parent="1" source="16dyO4OcK8zkG5f7qzQN-93" target="16dyO4OcK8zkG5f7qzQN-100">
          <mxGeometry relative="1" as="geometry">
            <mxPoint x="-290" y="330" as="targetPoint" />
          </mxGeometry>
        </mxCell>
        <mxCell id="16dyO4OcK8zkG5f7qzQN-104" style="edgeStyle=orthogonalEdgeStyle;rounded=0;orthogonalLoop=1;jettySize=auto;html=1;entryX=0.5;entryY=0;entryDx=0;entryDy=0;fontSize=24;fontColor=#FCFCFC;" edge="1" parent="1" source="16dyO4OcK8zkG5f7qzQN-93" target="16dyO4OcK8zkG5f7qzQN-97">
          <mxGeometry relative="1" as="geometry" />
        </mxCell>
        <mxCell id="16dyO4OcK8zkG5f7qzQN-105" style="edgeStyle=orthogonalEdgeStyle;rounded=0;orthogonalLoop=1;jettySize=auto;html=1;fontSize=24;fontColor=#FCFCFC;" edge="1" parent="1" source="16dyO4OcK8zkG5f7qzQN-93" target="16dyO4OcK8zkG5f7qzQN-98">
          <mxGeometry relative="1" as="geometry" />
        </mxCell>
        <mxCell id="16dyO4OcK8zkG5f7qzQN-106" style="edgeStyle=orthogonalEdgeStyle;rounded=0;orthogonalLoop=1;jettySize=auto;html=1;fontSize=24;fontColor=#FCFCFC;" edge="1" parent="1" source="16dyO4OcK8zkG5f7qzQN-93" target="16dyO4OcK8zkG5f7qzQN-107">
          <mxGeometry relative="1" as="geometry">
            <mxPoint x="-1030" y="250" as="targetPoint" />
          </mxGeometry>
        </mxCell>
        <mxCell id="16dyO4OcK8zkG5f7qzQN-93" value="QUERY" style="ellipse;shape=doubleEllipse;margin=3;whiteSpace=wrap;html=1;align=center;shadow=0;labelBorderColor=default;fontSize=24;fontColor=#FCFCFC;fillColor=#4545BF;gradientColor=none;" vertex="1" parent="1">
          <mxGeometry x="-550" y="140" width="130" height="70" as="geometry" />
        </mxCell>
        <mxCell id="16dyO4OcK8zkG5f7qzQN-95" value="Z-A" style="ellipse;whiteSpace=wrap;html=1;align=center;shadow=0;labelBorderColor=default;fontSize=24;fontColor=#FCFCFC;fillColor=#444488;gradientColor=none;" vertex="1" parent="1">
          <mxGeometry x="-480" y="-180" width="190" height="70" as="geometry" />
        </mxCell>
        <mxCell id="16dyO4OcK8zkG5f7qzQN-96" value="A-Z" style="ellipse;whiteSpace=wrap;html=1;align=center;shadow=0;labelBorderColor=default;fontSize=24;fontColor=#FCFCFC;fillColor=#444488;gradientColor=none;" vertex="1" parent="1">
          <mxGeometry x="-570" y="-50" width="190" height="70" as="geometry" />
        </mxCell>
        <mxCell id="16dyO4OcK8zkG5f7qzQN-97" value="RECIPES" style="ellipse;whiteSpace=wrap;html=1;align=center;shadow=0;labelBorderColor=default;fontSize=24;fontColor=#FCFCFC;fillColor=#444488;gradientColor=none;" vertex="1" parent="1">
          <mxGeometry x="-600" y="290" width="190" height="70" as="geometry" />
        </mxCell>
        <mxCell id="16dyO4OcK8zkG5f7qzQN-98" value="INGREDIENTS" style="ellipse;whiteSpace=wrap;html=1;align=center;shadow=0;labelBorderColor=default;fontSize=24;fontColor=#FCFCFC;fillColor=#444488;gradientColor=none;" vertex="1" parent="1">
          <mxGeometry x="-820" y="250" width="190" height="70" as="geometry" />
        </mxCell>
        <mxCell id="16dyO4OcK8zkG5f7qzQN-100" value="USERNAME" style="ellipse;whiteSpace=wrap;html=1;align=center;shadow=0;labelBorderColor=default;fontSize=24;fontColor=#FCFCFC;fillColor=#444488;gradientColor=none;" vertex="1" parent="1">
          <mxGeometry x="-360" y="260" width="190" height="70" as="geometry" />
        </mxCell>
        <mxCell id="16dyO4OcK8zkG5f7qzQN-101" value="USERNAME" style="ellipse;whiteSpace=wrap;html=1;align=center;shadow=0;labelBorderColor=default;fontSize=24;fontColor=#FCFCFC;fillColor=#444488;gradientColor=none;" vertex="1" parent="1">
          <mxGeometry x="1970" y="-290" width="210" height="75" as="geometry" />
        </mxCell>
        <mxCell id="16dyO4OcK8zkG5f7qzQN-103" style="edgeStyle=orthogonalEdgeStyle;rounded=0;orthogonalLoop=1;jettySize=auto;html=1;exitX=0.5;exitY=1;exitDx=0;exitDy=0;fontSize=24;fontColor=#FCFCFC;" edge="1" parent="1" source="16dyO4OcK8zkG5f7qzQN-100" target="16dyO4OcK8zkG5f7qzQN-100">
          <mxGeometry relative="1" as="geometry" />
        </mxCell>
        <mxCell id="16dyO4OcK8zkG5f7qzQN-107" value="TITLE" style="ellipse;whiteSpace=wrap;html=1;align=center;shadow=0;labelBorderColor=default;fontSize=24;fontColor=#FCFCFC;fillColor=#444488;gradientColor=none;" vertex="1" parent="1">
          <mxGeometry x="-1040" y="250" width="190" height="70" as="geometry" />
        </mxCell>
        <mxCell id="16dyO4OcK8zkG5f7qzQN-111" value="MOST RECENT" style="ellipse;whiteSpace=wrap;html=1;align=center;shadow=0;labelBorderColor=default;fontSize=24;fontColor=#FCFCFC;fillColor=#444488;gradientColor=none;" vertex="1" parent="1">
          <mxGeometry x="-345" y="-280" width="230" height="80" as="geometry" />
        </mxCell>
        <mxCell id="16dyO4OcK8zkG5f7qzQN-113" value="MOST RECENT" style="ellipse;whiteSpace=wrap;html=1;align=center;shadow=0;labelBorderColor=default;fontSize=24;fontColor=#FCFCFC;fillColor=#444488;gradientColor=none;" vertex="1" parent="1">
          <mxGeometry x="-50" y="-340" width="230" height="80" as="geometry" />
        </mxCell>
      </root>
    </mxGraphModel>
  </diagram>
</mxfile>
